<svg xmlns="http://www.w3.org/2000/svg" width="1600" height="520" viewBox="0 0 1600 520">
<g>
  <clipPath id="clip-hlighttransparent">
    <rect x="120" y="100" width="320" height="320"/>
  </clipPath>
  <mask id="mask-hlighttransparent">
    <rect x="120" y="100" width="320" height="320" fill="#fff"/>
    <path fill="#000" stroke="#000" stroke-width="24.0" stroke-linejoin="round" vector-effect="non-scaling-stroke" transform="translate(189.71,359.20) scale(0.13608,-0.13608)" d="M154 0H768Q940 0 1055 115Q1171 225 1173 414Q1173 528 1116 625Q1055 719 936 750V754Q999 784 1042 821Q1085 856 1108 895Q1153 977 1151 1067Q1151 1243 1042 1350Q934 1456 719 1458H154ZM715 647Q838 645 895 582Q952 518 952 428Q952 340 895 276Q838 211 715 209H375V647ZM694 1261Q815 1259 872 1202Q930 1141 930 1053Q930 965 872 907Q815 844 694 844H375V1261Z"/>
  </mask>
  <g clip-path="url(#clip-hlighttransparent)">
    
    <g mask="url(#mask-hlighttransparent)">
      <g fill="#CDB294" transform="translate(66.67,100.00)">
        <rect x="0.00" y="0.00" width="426.67" height="7.62"/><rect x="0.00" y="7.62" width="7.62" height="7.62"/><rect x="106.67" y="7.62" width="7.62" height="7.62"/><rect x="213.33" y="7.62" width="7.62" height="7.62"/><rect x="320.00" y="7.62" width="7.62" height="7.62"/><rect x="0.00" y="15.24" width="7.62" height="7.62"/><rect x="15.24" y="15.24" width="83.81" height="7.62"/><rect x="106.67" y="15.24" width="7.62" height="7.62"/><rect x="121.90" y="15.24" width="83.81" height="7.62"/><rect x="213.33" y="15.24" width="7.62" height="7.62"/><rect x="228.57" y="15.24" width="83.81" height="7.62"/><rect x="320.00" y="15.24" width="7.62" height="7.62"/><rect x="335.24" y="15.24" width="83.81" height="7.62"/><rect x="0.00" y="22.86" width="7.62" height="7.62"/><rect x="15.24" y="22.86" width="7.62" height="7.62"/><rect x="91.43" y="22.86" width="7.62" height="7.62"/><rect x="106.67" y="22.86" width="7.62" height="7.62"/><rect x="121.90" y="22.86" width="7.62" height="7.62"/><rect x="198.10" y="22.86" width="7.62" height="7.62"/><rect x="213.33" y="22.86" width="7.62" height="7.62"/><rect x="228.57" y="22.86" width="7.62" height="7.62"/><rect x="304.76" y="22.86" width="7.62" height="7.62"/><rect x="320.00" y="22.86" width="7.62" height="7.62"/><rect x="335.24" y="22.86" width="7.62" height="7.62"/><rect x="411.43" y="22.86" width="7.62" height="7.62"/><rect x="0.00" y="30.48" width="7.62" height="7.62"/><rect x="15.24" y="30.48" width="7.62" height="7.62"/><rect x="30.48" y="30.48" width="53.33" height="7.62"/><rect x="91.43" y="30.48" width="7.62" height="7.62"/><rect x="106.67" y="30.48" width="7.62" height="7.62"/><rect x="121.90" y="30.48" width="7.62" height="7.62"/><rect x="137.14" y="30.48" width="53.33" height="7.62"/><rect x="198.10" y="30.48" width="7.62" height="7.62"/><rect x="213.33" y="30.48" width="7.62" height="7.62"/><rect x="228.57" y="30.48" width="7.62" height="7.62"/><rect x="243.81" y="30.48" width="53.33" height="7.62"/><rect x="304.76" y="30.48" width="7.62" height="7.62"/><rect x="320.00" y="30.48" width="7.62" height="7.62"/><rect x="335.24" y="30.48" width="7.62" height="7.62"/><rect x="350.48" y="30.48" width="53.33" height="7.62"/><rect x="411.43" y="30.48" width="7.62" height="7.62"/><rect x="0.00" y="38.10" width="7.62" height="7.62"/><rect x="15.24" y="38.10" width="7.62" height="7.62"/><rect x="30.48" y="38.10" width="7.62" height="7.62"/><rect x="76.19" y="38.10" width="7.62" height="7.62"/><rect x="91.43" y="38.10" width="7.62" height="7.62"/><rect x="106.67" y="38.10" width="7.62" height="7.62"/><rect x="121.90" y="38.10" width="7.62" height="7.62"/><rect x="137.14" y="38.10" width="7.62" height="7.62"/><rect x="182.86" y="38.10" width="7.62" height="7.62"/><rect x="198.10" y="38.10" width="7.62" height="7.62"/><rect x="213.33" y="38.10" width="7.62" height="7.62"/><rect x="228.57" y="38.10" width="7.62" height="7.62"/><rect x="243.81" y="38.10" width="7.62" height="7.62"/><rect x="289.52" y="38.10" width="7.62" height="7.62"/><rect x="304.76" y="38.10" width="7.62" height="7.62"/><rect x="320.00" y="38.10" width="7.62" height="7.62"/><rect x="335.24" y="38.10" width="7.62" height="7.62"/><rect x="350.48" y="38.10" width="7.62" height="7.62"/><rect x="396.19" y="38.10" width="7.62" height="7.62"/><rect x="411.43" y="38.10" width="7.62" height="7.62"/><rect x="0.00" y="45.71" width="7.62" height="7.62"/><rect x="15.24" y="45.71" width="7.62" height="7.62"/><rect x="30.48" y="45.71" width="7.62" height="7.62"/><rect x="60.95" y="45.71" width="7.62" height="7.62"/><rect x="76.19" y="45.71" width="7.62" height="7.62"/><rect x="91.43" y="45.71" width="7.62" height="7.62"/><rect x="106.67" y="45.71" width="7.62" height="7.62"/><rect x="121.90" y="45.71" width="7.62" height="7.62"/><rect x="137.14" y="45.71" width="7.62" height="7.62"/><rect x="167.62" y="45.71" width="7.62" height="7.62"/><rect x="182.86" y="45.71" width="7.62" height="7.62"/><rect x="198.10" y="45.71" width="7.62" height="7.62"/><rect x="213.33" y="45.71" width="7.62" height="7.62"/><rect x="228.57" y="45.71" width="7.62" height="7.62"/><rect x="243.81" y="45.71" width="7.62" height="7.62"/><rect x="274.29" y="45.71" width="7.62" height="7.62"/><rect x="289.52" y="45.71" width="7.62" height="7.62"/><rect x="304.76" y="45.71" width="7.62" height="7.62"/><rect x="320.00" y="45.71" width="7.62" height="7.62"/><rect x="335.24" y="45.71" width="7.62" height="7.62"/><rect x="350.48" y="45.71" width="7.62" height="7.62"/><rect x="380.95" y="45.71" width="7.62" height="7.62"/><rect x="396.19" y="45.71" width="7.62" height="7.62"/><rect x="411.43" y="45.71" width="7.62" height="7.62"/><rect x="0.00" y="53.33" width="7.62" height="7.62"/><rect x="15.24" y="53.33" width="7.62" height="7.62"/><rect x="30.48" y="53.33" width="7.62" height="7.62"/><rect x="60.95" y="53.33" width="7.62" height="7.62"/><rect x="76.19" y="53.33" width="7.62" height="7.62"/><rect x="91.43" y="53.33" width="7.62" height="7.62"/><rect x="106.67" y="53.33" width="7.62" height="7.62"/><rect x="121.90" y="53.33" width="7.62" height="7.62"/><rect x="137.14" y="53.33" width="7.62" height="7.62"/><rect x="167.62" y="53.33" width="7.62" height="7.62"/><rect x="182.86" y="53.33" width="7.62" height="7.62"/><rect x="198.10" y="53.33" width="7.62" height="7.62"/><rect x="213.33" y="53.33" width="7.62" height="7.62"/><rect x="228.57" y="53.33" width="7.62" height="7.62"/><rect x="243.81" y="53.33" width="7.62" height="7.62"/><rect x="274.29" y="53.33" width="7.62" height="7.62"/><rect x="289.52" y="53.33" width="7.62" height="7.62"/><rect x="304.76" y="53.33" width="7.62" height="7.62"/><rect x="320.00" y="53.33" width="7.62" height="7.62"/><rect x="335.24" y="53.33" width="7.62" height="7.62"/><rect x="350.48" y="53.33" width="7.62" height="7.62"/><rect x="380.95" y="53.33" width="7.62" height="7.62"/><rect x="396.19" y="53.33" width="7.62" height="7.62"/><rect x="411.43" y="53.33" width="7.62" height="7.62"/><rect x="0.00" y="60.95" width="7.62" height="7.62"/><rect x="15.24" y="60.95" width="7.62" height="7.62"/><rect x="30.48" y="60.95" width="38.10" height="7.62"/><rect x="76.19" y="60.95" width="7.62" height="7.62"/><rect x="91.43" y="60.95" width="7.62" height="7.62"/><rect x="106.67" y="60.95" width="7.62" height="7.62"/><rect x="121.90" y="60.95" width="7.62" height="7.62"/><rect x="137.14" y="60.95" width="38.10" height="7.62"/><rect x="182.86" y="60.95" width="7.62" height="7.62"/><rect x="198.10" y="60.95" width="7.62" height="7.62"/><rect x="213.33" y="60.95" width="7.62" height="7.62"/><rect x="228.57" y="60.95" width="7.62" height="7.62"/><rect x="243.81" y="60.95" width="38.10" height="7.62"/><rect x="289.52" y="60.95" width="7.62" height="7.62"/><rect x="304.76" y="60.95" width="7.62" height="7.62"/><rect x="320.00" y="60.95" width="7.62" height="7.62"/><rect x="335.24" y="60.95" width="7.62" height="7.62"/><rect x="350.48" y="60.95" width="38.10" height="7.62"/><rect x="396.19" y="60.95" width="7.62" height="7.62"/><rect x="411.43" y="60.95" width="7.62" height="7.62"/><rect x="0.00" y="68.57" width="7.62" height="7.62"/><rect x="15.24" y="68.57" width="7.62" height="7.62"/><rect x="76.19" y="68.57" width="7.62" height="7.62"/><rect x="91.43" y="68.57" width="7.62" height="7.62"/><rect x="106.67" y="68.57" width="7.62" height="7.62"/><rect x="121.90" y="68.57" width="7.62" height="7.62"/><rect x="182.86" y="68.57" width="7.62" height="7.62"/><rect x="198.10" y="68.57" width="7.62" height="7.62"/><rect x="213.33" y="68.57" width="7.62" height="7.62"/><rect x="228.57" y="68.57" width="7.62" height="7.62"/><rect x="289.52" y="68.57" width="7.62" height="7.62"/><rect x="304.76" y="68.57" width="7.62" height="7.62"/><rect x="320.00" y="68.57" width="7.62" height="7.62"/><rect x="335.24" y="68.57" width="7.62" height="7.62"/><rect x="396.19" y="68.57" width="7.62" height="7.62"/><rect x="411.43" y="68.57" width="7.62" height="7.62"/><rect x="0.00" y="76.19" width="7.62" height="7.62"/><rect x="15.24" y="76.19" width="68.57" height="7.62"/><rect x="91.43" y="76.19" width="7.62" height="7.62"/><rect x="106.67" y="76.19" width="7.62" height="7.62"/><rect x="121.90" y="76.19" width="68.57" height="7.62"/><rect x="198.10" y="76.19" width="7.62" height="7.62"/><rect x="213.33" y="76.19" width="7.62" height="7.62"/><rect x="228.57" y="76.19" width="68.57" height="7.62"/><rect x="304.76" y="76.19" width="7.62" height="7.62"/><rect x="320.00" y="76.19" width="7.62" height="7.62"/><rect x="335.24" y="76.19" width="68.57" height="7.62"/><rect x="411.43" y="76.19" width="7.62" height="7.62"/><rect x="0.00" y="83.81" width="7.62" height="7.62"/><rect x="91.43" y="83.81" width="7.62" height="7.62"/><rect x="106.67" y="83.81" width="7.62" height="7.62"/><rect x="198.10" y="83.81" width="7.62" height="7.62"/><rect x="213.33" y="83.81" width="7.62" height="7.62"/><rect x="304.76" y="83.81" width="7.62" height="7.62"/><rect x="320.00" y="83.81" width="7.62" height="7.62"/><rect x="411.43" y="83.81" width="7.62" height="7.62"/><rect x="0.00" y="91.43" width="99.05" height="7.62"/><rect x="106.67" y="91.43" width="99.05" height="7.62"/><rect x="213.33" y="91.43" width="99.05" height="7.62"/><rect x="320.00" y="91.43" width="99.05" height="7.62"/><rect x="0.00" y="106.67" width="426.67" height="7.62"/><rect x="0.00" y="114.29" width="7.62" height="7.62"/><rect x="106.67" y="114.29" width="7.62" height="7.62"/><rect x="213.33" y="114.29" width="7.62" height="7.62"/><rect x="320.00" y="114.29" width="7.62" height="7.62"/><rect x="0.00" y="121.90" width="7.62" height="7.62"/><rect x="15.24" y="121.90" width="83.81" height="7.62"/><rect x="106.67" y="121.90" width="7.62" height="7.62"/><rect x="121.90" y="121.90" width="83.81" height="7.62"/><rect x="213.33" y="121.90" width="7.62" height="7.62"/><rect x="228.57" y="121.90" width="83.81" height="7.62"/><rect x="320.00" y="121.90" width="7.62" height="7.62"/><rect x="335.24" y="121.90" width="83.81" height="7.62"/><rect x="0.00" y="129.52" width="7.62" height="7.62"/><rect x="15.24" y="129.52" width="7.62" height="7.62"/><rect x="91.43" y="129.52" width="7.62" height="7.62"/><rect x="106.67" y="129.52" width="7.62" height="7.62"/><rect x="121.90" y="129.52" width="7.62" height="7.62"/><rect x="198.10" y="129.52" width="7.62" height="7.62"/><rect x="213.33" y="129.52" width="7.62" height="7.62"/><rect x="228.57" y="129.52" width="7.62" height="7.62"/><rect x="304.76" y="129.52" width="7.62" height="7.62"/><rect x="320.00" y="129.52" width="7.62" height="7.62"/><rect x="335.24" y="129.52" width="7.62" height="7.62"/><rect x="411.43" y="129.52" width="7.62" height="7.62"/><rect x="0.00" y="137.14" width="7.62" height="7.62"/><rect x="15.24" y="137.14" width="7.62" height="7.62"/><rect x="30.48" y="137.14" width="53.33" height="7.62"/><rect x="91.43" y="137.14" width="7.62" height="7.62"/><rect x="106.67" y="137.14" width="7.62" height="7.62"/><rect x="121.90" y="137.14" width="7.62" height="7.62"/><rect x="137.14" y="137.14" width="53.33" height="7.62"/><rect x="198.10" y="137.14" width="7.62" height="7.62"/><rect x="213.33" y="137.14" width="7.62" height="7.62"/><rect x="228.57" y="137.14" width="7.62" height="7.62"/><rect x="243.81" y="137.14" width="53.33" height="7.62"/><rect x="304.76" y="137.14" width="7.62" height="7.62"/><rect x="320.00" y="137.14" width="7.62" height="7.62"/><rect x="335.24" y="137.14" width="7.62" height="7.62"/><rect x="350.48" y="137.14" width="53.33" height="7.62"/><rect x="411.43" y="137.14" width="7.62" height="7.62"/><rect x="0.00" y="144.76" width="7.62" height="7.62"/><rect x="15.24" y="144.76" width="7.62" height="7.62"/><rect x="30.48" y="144.76" width="7.62" height="7.62"/><rect x="76.19" y="144.76" width="7.62" height="7.62"/><rect x="91.43" y="144.76" width="7.62" height="7.62"/><rect x="106.67" y="144.76" width="7.62" height="7.62"/><rect x="121.90" y="144.76" width="7.62" height="7.62"/><rect x="137.14" y="144.76" width="7.62" height="7.62"/><rect x="182.86" y="144.76" width="7.62" height="7.62"/><rect x="198.10" y="144.76" width="7.62" height="7.62"/><rect x="213.33" y="144.76" width="7.62" height="7.62"/><rect x="228.57" y="144.76" width="7.62" height="7.62"/><rect x="243.81" y="144.76" width="7.62" height="7.62"/><rect x="289.52" y="144.76" width="7.62" height="7.62"/><rect x="304.76" y="144.76" width="7.62" height="7.62"/><rect x="320.00" y="144.76" width="7.62" height="7.62"/><rect x="335.24" y="144.76" width="7.62" height="7.62"/><rect x="350.48" y="144.76" width="7.62" height="7.62"/><rect x="396.19" y="144.76" width="7.62" height="7.62"/><rect x="411.43" y="144.76" width="7.62" height="7.62"/><rect x="0.00" y="152.38" width="7.62" height="7.62"/><rect x="15.24" y="152.38" width="7.62" height="7.62"/><rect x="30.48" y="152.38" width="7.62" height="7.62"/><rect x="60.95" y="152.38" width="7.62" height="7.62"/><rect x="76.19" y="152.38" width="7.62" height="7.62"/><rect x="91.43" y="152.38" width="7.62" height="7.62"/><rect x="106.67" y="152.38" width="7.62" height="7.62"/><rect x="121.90" y="152.38" width="7.62" height="7.62"/><rect x="137.14" y="152.38" width="7.62" height="7.62"/><rect x="167.62" y="152.38" width="7.62" height="7.62"/><rect x="182.86" y="152.38" width="7.62" height="7.62"/><rect x="198.10" y="152.38" width="7.62" height="7.62"/><rect x="213.33" y="152.38" width="7.62" height="7.62"/><rect x="228.57" y="152.38" width="7.62" height="7.62"/><rect x="243.81" y="152.38" width="7.62" height="7.62"/><rect x="274.29" y="152.38" width="7.62" height="7.62"/><rect x="289.52" y="152.38" width="7.62" height="7.62"/><rect x="304.76" y="152.38" width="7.62" height="7.62"/><rect x="320.00" y="152.38" width="7.62" height="7.62"/><rect x="335.24" y="152.38" width="7.62" height="7.62"/><rect x="350.48" y="152.38" width="7.62" height="7.62"/><rect x="380.95" y="152.38" width="7.62" height="7.62"/><rect x="396.19" y="152.38" width="7.62" height="7.62"/><rect x="411.43" y="152.38" width="7.62" height="7.62"/><rect x="0.00" y="160.00" width="7.62" height="7.62"/><rect x="15.24" y="160.00" width="7.62" height="7.62"/><rect x="30.48" y="160.00" width="7.62" height="7.62"/><rect x="60.95" y="160.00" width="7.62" height="7.62"/><rect x="76.19" y="160.00" width="7.62" height="7.62"/><rect x="91.43" y="160.00" width="7.62" height="7.62"/><rect x="106.67" y="160.00" width="7.62" height="7.62"/><rect x="121.90" y="160.00" width="7.62" height="7.62"/><rect x="137.14" y="160.00" width="7.62" height="7.62"/><rect x="167.62" y="160.00" width="7.62" height="7.62"/><rect x="182.86" y="160.00" width="7.62" height="7.62"/><rect x="198.10" y="160.00" width="7.62" height="7.62"/><rect x="213.33" y="160.00" width="7.62" height="7.62"/><rect x="228.57" y="160.00" width="7.62" height="7.62"/><rect x="243.81" y="160.00" width="7.62" height="7.62"/><rect x="274.29" y="160.00" width="7.62" height="7.62"/><rect x="289.52" y="160.00" width="7.62" height="7.62"/><rect x="304.76" y="160.00" width="7.62" height="7.62"/><rect x="320.00" y="160.00" width="7.62" height="7.62"/><rect x="335.24" y="160.00" width="7.62" height="7.62"/><rect x="350.48" y="160.00" width="7.62" height="7.62"/><rect x="380.95" y="160.00" width="7.62" height="7.62"/><rect x="396.19" y="160.00" width="7.62" height="7.62"/><rect x="411.43" y="160.00" width="7.62" height="7.62"/><rect x="0.00" y="167.62" width="7.62" height="7.62"/><rect x="15.24" y="167.62" width="7.62" height="7.62"/><rect x="30.48" y="167.62" width="38.10" height="7.62"/><rect x="76.19" y="167.62" width="7.62" height="7.62"/><rect x="91.43" y="167.62" width="7.62" height="7.62"/><rect x="106.67" y="167.62" width="7.62" height="7.62"/><rect x="121.90" y="167.62" width="7.62" height="7.62"/><rect x="137.14" y="167.62" width="38.10" height="7.62"/><rect x="182.86" y="167.62" width="7.62" height="7.62"/><rect x="198.10" y="167.62" width="7.62" height="7.62"/><rect x="213.33" y="167.62" width="7.62" height="7.62"/><rect x="228.57" y="167.62" width="7.62" height="7.62"/><rect x="243.81" y="167.62" width="38.10" height="7.62"/><rect x="289.52" y="167.62" width="7.62" height="7.62"/><rect x="304.76" y="167.62" width="7.62" height="7.62"/><rect x="320.00" y="167.62" width="7.62" height="7.62"/><rect x="335.24" y="167.62" width="7.62" height="7.62"/><rect x="350.48" y="167.62" width="38.10" height="7.62"/><rect x="396.19" y="167.62" width="7.62" height="7.62"/><rect x="411.43" y="167.62" width="7.62" height="7.62"/><rect x="0.00" y="175.24" width="7.62" height="7.62"/><rect x="15.24" y="175.24" width="7.62" height="7.62"/><rect x="76.19" y="175.24" width="7.62" height="7.62"/><rect x="91.43" y="175.24" width="7.62" height="7.62"/><rect x="106.67" y="175.24" width="7.62" height="7.62"/><rect x="121.90" y="175.24" width="7.62" height="7.62"/><rect x="182.86" y="175.24" width="7.62" height="7.62"/><rect x="198.10" y="175.24" width="7.62" height="7.62"/><rect x="213.33" y="175.24" width="7.62" height="7.62"/><rect x="228.57" y="175.24" width="7.62" height="7.62"/><rect x="289.52" y="175.24" width="7.62" height="7.62"/><rect x="304.76" y="175.24" width="7.62" height="7.62"/><rect x="320.00" y="175.24" width="7.62" height="7.62"/><rect x="335.24" y="175.24" width="7.62" height="7.62"/><rect x="396.19" y="175.24" width="7.62" height="7.62"/><rect x="411.43" y="175.24" width="7.62" height="7.62"/><rect x="0.00" y="182.86" width="7.62" height="7.62"/><rect x="15.24" y="182.86" width="68.57" height="7.62"/><rect x="91.43" y="182.86" width="7.62" height="7.62"/><rect x="106.67" y="182.86" width="7.62" height="7.62"/><rect x="121.90" y="182.86" width="68.57" height="7.62"/><rect x="198.10" y="182.86" width="7.62" height="7.62"/><rect x="213.33" y="182.86" width="7.62" height="7.62"/><rect x="228.57" y="182.86" width="68.57" height="7.62"/><rect x="304.76" y="182.86" width="7.62" height="7.62"/><rect x="320.00" y="182.86" width="7.62" height="7.62"/><rect x="335.24" y="182.86" width="68.57" height="7.62"/><rect x="411.43" y="182.86" width="7.62" height="7.62"/><rect x="0.00" y="190.48" width="7.62" height="7.62"/><rect x="91.43" y="190.48" width="7.62" height="7.62"/><rect x="106.67" y="190.48" width="7.62" height="7.62"/><rect x="198.10" y="190.48" width="7.62" height="7.62"/><rect x="213.33" y="190.48" width="7.62" height="7.62"/><rect x="304.76" y="190.48" width="7.62" height="7.62"/><rect x="320.00" y="190.48" width="7.62" height="7.62"/><rect x="411.43" y="190.48" width="7.62" height="7.62"/><rect x="0.00" y="198.10" width="99.05" height="7.62"/><rect x="106.67" y="198.10" width="99.05" height="7.62"/><rect x="213.33" y="198.10" width="99.05" height="7.62"/><rect x="320.00" y="198.10" width="99.05" height="7.62"/><rect x="0.00" y="213.33" width="426.67" height="7.62"/><rect x="0.00" y="220.95" width="7.62" height="7.62"/><rect x="106.67" y="220.95" width="7.62" height="7.62"/><rect x="213.33" y="220.95" width="7.62" height="7.62"/><rect x="320.00" y="220.95" width="7.62" height="7.62"/><rect x="0.00" y="228.57" width="7.62" height="7.62"/><rect x="15.24" y="228.57" width="83.81" height="7.62"/><rect x="106.67" y="228.57" width="7.62" height="7.62"/><rect x="121.90" y="228.57" width="83.81" height="7.62"/><rect x="213.33" y="228.57" width="7.62" height="7.62"/><rect x="228.57" y="228.57" width="83.81" height="7.62"/><rect x="320.00" y="228.57" width="7.62" height="7.62"/><rect x="335.24" y="228.57" width="83.81" height="7.62"/><rect x="0.00" y="236.19" width="7.62" height="7.62"/><rect x="15.24" y="236.19" width="7.62" height="7.62"/><rect x="91.43" y="236.19" width="7.62" height="7.62"/><rect x="106.67" y="236.19" width="7.62" height="7.62"/><rect x="121.90" y="236.19" width="7.62" height="7.62"/><rect x="198.10" y="236.19" width="7.62" height="7.62"/><rect x="213.33" y="236.19" width="7.62" height="7.62"/><rect x="228.57" y="236.19" width="7.62" height="7.62"/><rect x="304.76" y="236.19" width="7.62" height="7.62"/><rect x="320.00" y="236.19" width="7.62" height="7.62"/><rect x="335.24" y="236.19" width="7.62" height="7.62"/><rect x="411.43" y="236.19" width="7.62" height="7.62"/><rect x="0.00" y="243.81" width="7.62" height="7.62"/><rect x="15.24" y="243.81" width="7.62" height="7.62"/><rect x="30.48" y="243.81" width="53.33" height="7.62"/><rect x="91.43" y="243.81" width="7.62" height="7.62"/><rect x="106.67" y="243.81" width="7.62" height="7.62"/><rect x="121.90" y="243.81" width="7.62" height="7.62"/><rect x="137.14" y="243.81" width="53.33" height="7.62"/><rect x="198.10" y="243.81" width="7.62" height="7.62"/><rect x="213.33" y="243.81" width="7.62" height="7.62"/><rect x="228.57" y="243.81" width="7.62" height="7.62"/><rect x="243.81" y="243.81" width="53.33" height="7.62"/><rect x="304.76" y="243.81" width="7.62" height="7.62"/><rect x="320.00" y="243.81" width="7.62" height="7.62"/><rect x="335.24" y="243.81" width="7.62" height="7.62"/><rect x="350.48" y="243.81" width="53.33" height="7.62"/><rect x="411.43" y="243.81" width="7.62" height="7.62"/><rect x="0.00" y="251.43" width="7.62" height="7.62"/><rect x="15.24" y="251.43" width="7.62" height="7.62"/><rect x="30.48" y="251.43" width="7.62" height="7.62"/><rect x="76.19" y="251.43" width="7.62" height="7.62"/><rect x="91.43" y="251.43" width="7.62" height="7.62"/><rect x="106.67" y="251.43" width="7.62" height="7.62"/><rect x="121.90" y="251.43" width="7.62" height="7.62"/><rect x="137.14" y="251.43" width="7.62" height="7.62"/><rect x="182.86" y="251.43" width="7.62" height="7.62"/><rect x="198.10" y="251.43" width="7.62" height="7.62"/><rect x="213.33" y="251.43" width="7.62" height="7.62"/><rect x="228.57" y="251.43" width="7.62" height="7.62"/><rect x="243.81" y="251.43" width="7.62" height="7.62"/><rect x="289.52" y="251.43" width="7.62" height="7.62"/><rect x="304.76" y="251.43" width="7.62" height="7.62"/><rect x="320.00" y="251.43" width="7.62" height="7.62"/><rect x="335.24" y="251.43" width="7.62" height="7.62"/><rect x="350.48" y="251.43" width="7.62" height="7.62"/><rect x="396.19" y="251.43" width="7.62" height="7.62"/><rect x="411.43" y="251.43" width="7.62" height="7.62"/><rect x="0.00" y="259.05" width="7.62" height="7.62"/><rect x="15.24" y="259.05" width="7.62" height="7.62"/><rect x="30.48" y="259.05" width="7.62" height="7.62"/><rect x="60.95" y="259.05" width="7.62" height="7.62"/><rect x="76.19" y="259.05" width="7.62" height="7.62"/><rect x="91.43" y="259.05" width="7.62" height="7.62"/><rect x="106.67" y="259.05" width="7.62" height="7.62"/><rect x="121.90" y="259.05" width="7.62" height="7.62"/><rect x="137.14" y="259.05" width="7.62" height="7.62"/><rect x="167.62" y="259.05" width="7.62" height="7.62"/><rect x="182.86" y="259.05" width="7.62" height="7.62"/><rect x="198.10" y="259.05" width="7.62" height="7.62"/><rect x="213.33" y="259.05" width="7.62" height="7.62"/><rect x="228.57" y="259.05" width="7.62" height="7.62"/><rect x="243.81" y="259.05" width="7.62" height="7.62"/><rect x="274.29" y="259.05" width="7.62" height="7.62"/><rect x="289.52" y="259.05" width="7.62" height="7.62"/><rect x="304.76" y="259.05" width="7.62" height="7.62"/><rect x="320.00" y="259.05" width="7.62" height="7.62"/><rect x="335.24" y="259.05" width="7.62" height="7.62"/><rect x="350.48" y="259.05" width="7.62" height="7.62"/><rect x="380.95" y="259.05" width="7.62" height="7.62"/><rect x="396.19" y="259.05" width="7.62" height="7.62"/><rect x="411.43" y="259.05" width="7.62" height="7.62"/><rect x="0.00" y="266.67" width="7.62" height="7.62"/><rect x="15.24" y="266.67" width="7.62" height="7.62"/><rect x="30.48" y="266.67" width="7.62" height="7.62"/><rect x="60.95" y="266.67" width="7.62" height="7.62"/><rect x="76.19" y="266.67" width="7.62" height="7.62"/><rect x="91.43" y="266.67" width="7.62" height="7.62"/><rect x="106.67" y="266.67" width="7.62" height="7.62"/><rect x="121.90" y="266.67" width="7.62" height="7.62"/><rect x="137.14" y="266.67" width="7.62" height="7.62"/><rect x="167.62" y="266.67" width="7.62" height="7.62"/><rect x="182.86" y="266.67" width="7.62" height="7.62"/><rect x="198.10" y="266.67" width="7.62" height="7.62"/><rect x="213.33" y="266.67" width="7.62" height="7.62"/><rect x="228.57" y="266.67" width="7.62" height="7.62"/><rect x="243.81" y="266.67" width="7.62" height="7.62"/><rect x="274.29" y="266.67" width="7.62" height="7.62"/><rect x="289.52" y="266.67" width="7.62" height="7.62"/><rect x="304.76" y="266.67" width="7.62" height="7.62"/><rect x="320.00" y="266.67" width="7.62" height="7.62"/><rect x="335.24" y="266.67" width="7.62" height="7.62"/><rect x="350.48" y="266.67" width="7.62" height="7.62"/><rect x="380.95" y="266.67" width="7.62" height="7.62"/><rect x="396.19" y="266.67" width="7.62" height="7.62"/><rect x="411.43" y="266.67" width="7.62" height="7.62"/><rect x="0.00" y="274.29" width="7.62" height="7.62"/><rect x="15.24" y="274.29" width="7.62" height="7.62"/><rect x="30.48" y="274.29" width="38.10" height="7.62"/><rect x="76.19" y="274.29" width="7.62" height="7.62"/><rect x="91.43" y="274.29" width="7.62" height="7.62"/><rect x="106.67" y="274.29" width="7.62" height="7.62"/><rect x="121.90" y="274.29" width="7.62" height="7.62"/><rect x="137.14" y="274.29" width="38.10" height="7.62"/><rect x="182.86" y="274.29" width="7.62" height="7.62"/><rect x="198.10" y="274.29" width="7.62" height="7.62"/><rect x="213.33" y="274.29" width="7.62" height="7.62"/><rect x="228.57" y="274.29" width="7.62" height="7.62"/><rect x="243.81" y="274.29" width="38.10" height="7.62"/><rect x="289.52" y="274.29" width="7.62" height="7.62"/><rect x="304.76" y="274.29" width="7.62" height="7.62"/><rect x="320.00" y="274.29" width="7.62" height="7.62"/><rect x="335.24" y="274.29" width="7.62" height="7.62"/><rect x="350.48" y="274.29" width="38.10" height="7.62"/><rect x="396.19" y="274.29" width="7.62" height="7.62"/><rect x="411.43" y="274.29" width="7.62" height="7.62"/><rect x="0.00" y="281.90" width="7.62" height="7.62"/><rect x="15.24" y="281.90" width="7.62" height="7.62"/><rect x="76.19" y="281.90" width="7.62" height="7.62"/><rect x="91.43" y="281.90" width="7.62" height="7.62"/><rect x="106.67" y="281.90" width="7.62" height="7.62"/><rect x="121.90" y="281.90" width="7.62" height="7.62"/><rect x="182.86" y="281.90" width="7.62" height="7.62"/><rect x="198.10" y="281.90" width="7.62" height="7.62"/><rect x="213.33" y="281.90" width="7.62" height="7.62"/><rect x="228.57" y="281.90" width="7.62" height="7.62"/><rect x="289.52" y="281.90" width="7.62" height="7.62"/><rect x="304.76" y="281.90" width="7.62" height="7.62"/><rect x="320.00" y="281.90" width="7.62" height="7.62"/><rect x="335.24" y="281.90" width="7.62" height="7.62"/><rect x="396.19" y="281.90" width="7.62" height="7.62"/><rect x="411.43" y="281.90" width="7.62" height="7.62"/><rect x="0.00" y="289.52" width="7.62" height="7.62"/><rect x="15.24" y="289.52" width="68.57" height="7.62"/><rect x="91.43" y="289.52" width="7.62" height="7.62"/><rect x="106.67" y="289.52" width="7.62" height="7.62"/><rect x="121.90" y="289.52" width="68.57" height="7.62"/><rect x="198.10" y="289.52" width="7.62" height="7.62"/><rect x="213.33" y="289.52" width="7.62" height="7.62"/><rect x="228.57" y="289.52" width="68.57" height="7.62"/><rect x="304.76" y="289.52" width="7.62" height="7.62"/><rect x="320.00" y="289.52" width="7.62" height="7.62"/><rect x="335.24" y="289.52" width="68.57" height="7.62"/><rect x="411.43" y="289.52" width="7.62" height="7.62"/><rect x="0.00" y="297.14" width="7.62" height="7.62"/><rect x="91.43" y="297.14" width="7.62" height="7.62"/><rect x="106.67" y="297.14" width="7.62" height="7.62"/><rect x="198.10" y="297.14" width="7.62" height="7.62"/><rect x="213.33" y="297.14" width="7.62" height="7.62"/><rect x="304.76" y="297.14" width="7.62" height="7.62"/><rect x="320.00" y="297.14" width="7.62" height="7.62"/><rect x="411.43" y="297.14" width="7.62" height="7.62"/><rect x="0.00" y="304.76" width="99.05" height="7.62"/><rect x="106.67" y="304.76" width="99.05" height="7.62"/><rect x="213.33" y="304.76" width="99.05" height="7.62"/><rect x="320.00" y="304.76" width="99.05" height="7.62"/>
      </g>
    </g>
  </g>
  <path fill="#8C6A52" stroke="#8C6A52" stroke-width="12.80" stroke-linejoin="round" vector-effect="non-scaling-stroke" transform="translate(189.71,359.20) scale(0.13608,-0.13608)" d="M154 0H768Q940 0 1055 115Q1171 225 1173 414Q1173 528 1116 625Q1055 719 936 750V754Q999 784 1042 821Q1085 856 1108 895Q1153 977 1151 1067Q1151 1243 1042 1350Q934 1456 719 1458H154ZM715 647Q838 645 895 582Q952 518 952 428Q952 340 895 276Q838 211 715 209H375V647ZM694 1261Q815 1259 872 1202Q930 1141 930 1053Q930 965 872 907Q815 844 694 844H375V1261Z"/>
  <path fill="#E5B23A" transform="translate(189.71,359.20) scale(0.13608,-0.13608)" d="M154 0H768Q940 0 1055 115Q1171 225 1173 414Q1173 528 1116 625Q1055 719 936 750V754Q999 784 1042 821Q1085 856 1108 895Q1153 977 1151 1067Q1151 1243 1042 1350Q934 1456 719 1458H154ZM715 647Q838 645 895 582Q952 518 952 428Q952 340 895 276Q838 211 715 209H375V647ZM694 1261Q815 1259 872 1202Q930 1141 930 1053Q930 965 872 907Q815 844 694 844H375V1261Z"/>
  <g fill="#8C6A52"><rect x="120.00" y="100.00" width="51.20" height="5.12"/><rect x="120.00" y="100.00" width="5.12" height="51.20"/><rect x="388.80" y="100.00" width="51.20" height="5.12"/><rect x="434.88" y="100.00" width="5.12" height="51.20"/><rect x="120.00" y="414.88" width="51.20" height="5.12"/><rect x="120.00" y="368.80" width="5.12" height="51.20"/><rect x="388.80" y="414.88" width="51.20" height="5.12"/><rect x="434.88" y="368.80" width="5.12" height="51.20"/></g>
</g><g fill="#AD9179"><path transform="translate(522.00,176.00) scale(0.01074,-0.01074)" d="M649 0H204V1443H648Q845 1443 956.0 1348.5Q1067 1254 1067 1087Q1067 1006 1036.0 939.0Q1005 872 950.0 827.5Q895 783 823 769V756Q921 745 992.0 697.5Q1063 650 1102.0 573.5Q1141 497 1141 399Q1141 210 1011.5 105.0Q882 0 649 0ZM341 1322V807H589Q756 807 842.5 873.0Q929 939 929 1065Q929 1187 848.5 1254.5Q768 1322 622 1322ZM341 121H630Q811 121 906.0 194.0Q1001 267 1001 406Q1001 688 623 688H341Z"/><path transform="translate(539.12,176.00) scale(0.01074,-0.01074)" d="M1114 124V0H275V1443H411V124Z"/><path transform="translate(556.24,176.00) scale(0.01074,-0.01074)" d="M375 0H238V1443H375V697H387L1000 1443H1171L624 805L1230 0H1053L533 700L375 515Z"/><path transform="translate(573.36,176.00) scale(0.01074,-0.01074)" d="M1162 581H104V697H1162Z"/><path transform="translate(590.48,176.00) scale(0.01074,-0.01074)" d="M634 86Q796 86 879.5 247.0Q963 408 963 721Q963 1034 879.5 1195.0Q796 1356 634 1356Q472 1356 388.5 1195.0Q305 1034 305 721Q305 408 388.5 247.0Q472 86 634 86ZM271 308V465L1004 1135V987ZM634 -34Q408 -34 288.0 160.5Q168 355 168 721Q168 1087 288.0 1281.5Q408 1476 634 1476Q860 1476 980.0 1281.5Q1100 1087 1100 721Q1100 355 980.0 160.5Q860 -34 634 -34Z"/><path transform="translate(607.60,176.00) scale(0.01074,-0.01074)" d="M822 0V319H160V424L669 1443H809L304 446V436H822V870H947V441H1176V319H945V0Z"/><path transform="translate(641.84,176.00) scale(0.01074,-0.01074)" d="M340 -99H215L926 1542H1051Z"/><path transform="translate(676.08,176.00) scale(0.01074,-0.01074)" d="M405 0H268V1443H1097V1319H405V777H1039V655H405Z"/><path transform="translate(693.20,176.00) scale(0.01074,-0.01074)" d="M991 0H275V118H565V1325H275V1443H991V1325H701V118H991Z"/><path transform="translate(710.32,176.00) scale(0.01074,-0.01074)" d="M1072 124V0H242V1443H1072V1319H379V800H1035V678H379V124Z"/><path transform="translate(727.44,176.00) scale(0.01074,-0.01074)" d="M1114 124V0H275V1443H411V124Z"/><path transform="translate(744.55,176.00) scale(0.01074,-0.01074)" d="M174 1443H557Q865 1443 1018.5 1263.0Q1172 1083 1172 721Q1172 360 1018.5 180.0Q865 0 557 0H174ZM311 1319V124H549Q794 124 913.0 270.5Q1032 417 1032 721Q1032 1025 913.0 1172.0Q794 1319 549 1319Z"/><path transform="translate(778.79,176.00) scale(0.01074,-0.01074)" d="M633 96Q804 96 899.5 204.0Q995 312 995 505V1443H1131V496Q1131 250 998.5 110.0Q866 -30 633 -30Q400 -30 267.5 110.0Q135 250 135 496V1443H271V505Q271 312 366.5 204.0Q462 96 633 96Z"/><path transform="translate(795.91,176.00) scale(0.01074,-0.01074)" d="M290 0H162V1443H301L963 245H976V1443H1104V0H968L303 1199H290Z"/><path transform="translate(813.03,176.00) scale(0.01074,-0.01074)" d="M991 0H275V118H565V1325H275V1443H991V1325H701V118H991Z"/><path transform="translate(830.15,176.00) scale(0.01074,-0.01074)" d="M701 0H565V1319H121V1443H1145V1319H701Z"/></g><g fill="#8C6A52"><path transform="translate(520.00,300.00) scale(0.06445,-0.06445)" d="M154 0H768Q940 0 1055 115Q1171 225 1173 414Q1173 528 1116 625Q1055 719 936 750V754Q999 784 1042 821Q1085 856 1108 895Q1153 977 1151 1067Q1151 1243 1042 1350Q934 1456 719 1458H154ZM715 647Q838 645 895 582Q952 518 952 428Q952 340 895 276Q838 211 715 209H375V647ZM694 1261Q815 1259 872 1202Q930 1141 930 1053Q930 965 872 907Q815 844 694 844H375V1261Z"/><path transform="translate(618.98,300.00) scale(0.06445,-0.06445)" d="M154 0H1085V209H375V1458H154Z"/><path transform="translate(710.87,300.00) scale(0.06445,-0.06445)" d="M412 522 623 1159H627L838 522ZM1014 0H1247L717 1458H532L2 0H236L348 326H901Z"/><path transform="translate(809.86,300.00) scale(0.06445,-0.06445)" d="M903 408Q811 209 625 209Q547 209 491 242Q434 270 399 315Q356 362 342 438Q326 514 326 729Q326 944 342 1022Q356 1096 399 1143Q434 1188 491 1218Q547 1247 625 1249Q731 1247 805 1188Q876 1126 903 1038H1137Q1102 1221 969 1345Q836 1468 625 1470Q453 1468 338 1388Q221 1309 168 1208Q135 1155 119 1069Q104 983 104 729Q104 479 119 391Q127 344 139 313Q152 283 168 250Q221 149 338 72Q453 -8 625 -12Q815 -12 954 96Q1089 205 1137 408Z"/><path transform="translate(901.75,300.00) scale(0.06445,-0.06445)" d="M154 0H375V444L631 713L1028 0H1290L774 883L1241 1458H979L379 707H375V1458H154Z"/><path transform="translate(1003.37,300.00) scale(0.06445,-0.06445)" d="M104 729Q104 479 119 391Q127 344 139 313Q152 283 168 250Q221 149 338 72Q453 -8 625 -12Q799 -8 915 72Q1030 149 1081 250Q1118 303 1132 391Q1145 479 1145 729Q1145 983 1132 1069Q1118 1155 1081 1208Q1030 1309 915 1388Q799 1468 625 1470Q453 1468 338 1388Q221 1309 168 1208Q135 1155 119 1069Q104 983 104 729ZM326 729Q326 944 342 1022Q356 1096 399 1143Q434 1188 491 1218Q547 1247 625 1249Q704 1247 762 1218Q817 1188 850 1143Q893 1096 909 1022Q924 944 924 729Q924 514 909 438Q893 362 850 315Q817 270 762 242Q704 209 625 209Q547 209 491 242Q434 270 399 315Q356 362 342 438Q326 514 326 729Z"/><path transform="translate(1102.35,300.00) scale(0.06445,-0.06445)" d="M127 494Q129 264 279 129Q426 -10 645 -12Q868 -10 1014 129Q1159 264 1163 494V1458H942V518Q940 369 858 291Q774 209 645 209Q516 209 434 291Q350 369 348 518V1458H127Z"/><path transform="translate(1203.98,300.00) scale(0.06445,-0.06445)" d="M401 0H623V1261H1022V1458H2V1261H401Z"/></g><g fill="#B99274"><path transform="translate(522.00,360.00) scale(0.01270,-0.01270)" d="M632 1264 230 0H90L566 1443H700L1176 0H1036L634 1264ZM909 560 930 442H350L377 560Z"/><path transform="translate(540.67,360.00) scale(0.01270,-0.01270)" d="M633 96Q804 96 899.5 204.0Q995 312 995 505V1443H1131V496Q1131 250 998.5 110.0Q866 -30 633 -30Q400 -30 267.5 110.0Q135 250 135 496V1443H271V505Q271 312 366.5 204.0Q462 96 633 96Z"/><path transform="translate(559.34,360.00) scale(0.01270,-0.01270)" d="M701 0H565V1319H121V1443H1145V1319H701Z"/><path transform="translate(578.02,360.00) scale(0.01270,-0.01270)" d="M1152 602Q1152 304 1013.0 137.0Q874 -30 633 -30Q392 -30 253.0 137.0Q114 304 114 602V841Q114 1140 253.0 1306.5Q392 1473 633 1473Q874 1473 1013.0 1306.5Q1152 1140 1152 841ZM633 97Q810 97 912.5 229.5Q1015 362 1015 602V841Q1015 1081 912.5 1213.5Q810 1346 633 1346Q456 1346 353.5 1213.5Q251 1081 251 841V602Q251 362 353.5 229.5Q456 97 633 97Z"/><path transform="translate(596.69,360.00) scale(0.01270,-0.01270)" d="M290 0H162V1443H301L963 245H976V1443H1104V0H968L303 1199H290Z"/><path transform="translate(615.36,360.00) scale(0.01270,-0.01270)" d="M1152 602Q1152 304 1013.0 137.0Q874 -30 633 -30Q392 -30 253.0 137.0Q114 304 114 602V841Q114 1140 253.0 1306.5Q392 1473 633 1473Q874 1473 1013.0 1306.5Q1152 1140 1152 841ZM633 97Q810 97 912.5 229.5Q1015 362 1015 602V841Q1015 1081 912.5 1213.5Q810 1346 633 1346Q456 1346 353.5 1213.5Q251 1081 251 841V602Q251 362 353.5 229.5Q456 97 633 97Z"/><path transform="translate(634.03,360.00) scale(0.01270,-0.01270)" d="M248 589V0H120V1443H281L628 515H639L984 1443H1146V0H1018V589V1177H1008L692 339H574L258 1177H248Z"/><path transform="translate(652.71,360.00) scale(0.01270,-0.01270)" d="M1152 602Q1152 304 1013.0 137.0Q874 -30 633 -30Q392 -30 253.0 137.0Q114 304 114 602V841Q114 1140 253.0 1306.5Q392 1473 633 1473Q874 1473 1013.0 1306.5Q1152 1140 1152 841ZM633 97Q810 97 912.5 229.5Q1015 362 1015 602V841Q1015 1081 912.5 1213.5Q810 1346 633 1346Q456 1346 353.5 1213.5Q251 1081 251 841V602Q251 362 353.5 229.5Q456 97 633 97Z"/><path transform="translate(671.38,360.00) scale(0.01270,-0.01270)" d="M633 96Q804 96 899.5 204.0Q995 312 995 505V1443H1131V496Q1131 250 998.5 110.0Q866 -30 633 -30Q400 -30 267.5 110.0Q135 250 135 496V1443H271V505Q271 312 366.5 204.0Q462 96 633 96Z"/><path transform="translate(690.05,360.00) scale(0.01270,-0.01270)" d="M155 375H292Q306 245 402.5 170.0Q499 95 650 95Q805 95 898.0 172.5Q991 250 991 378Q991 482 920.0 548.5Q849 615 694 655L581 684Q378 737 284.5 833.5Q191 930 191 1085Q191 1203 248.0 1290.0Q305 1377 408.0 1425.0Q511 1473 650 1473Q781 1473 881.0 1425.5Q981 1378 1040.0 1292.0Q1099 1206 1106 1090H969Q954 1212 870.0 1280.0Q786 1348 650 1348Q500 1348 415.5 1278.5Q331 1209 331 1085Q331 984 399.0 920.5Q467 857 617 818L734 787Q945 732 1038.0 636.0Q1131 540 1131 378Q1131 255 1071.0 163.5Q1011 72 903.0 21.0Q795 -30 650 -30Q435 -30 301.5 79.0Q168 188 155 375Z"/><path transform="translate(746.07,360.00) scale(0.01270,-0.01270)" d="M632 1264 230 0H90L566 1443H700L1176 0H1036L634 1264ZM909 560 930 442H350L377 560Z"/><path transform="translate(764.74,360.00) scale(0.01270,-0.01270)" d="M330 1321V713H647Q808 713 893.5 791.0Q979 869 979 1015Q979 1162 895.5 1241.5Q812 1321 657 1321ZM709 595H330V0H196V1443H666Q872 1443 993.5 1329.0Q1115 1215 1115 1021Q1115 879 1040.5 771.5Q966 664 841 626L1137 0H983Z"/><path transform="translate(783.41,360.00) scale(0.01270,-0.01270)" d="M666 97Q823 97 916.0 181.0Q1009 265 1013 411H1150Q1150 283 1088.0 183.0Q1026 83 916.5 26.5Q807 -30 666 -30Q417 -30 279.5 135.5Q142 301 142 602V841Q142 1142 279.5 1307.5Q417 1473 666 1473Q886 1473 1016.0 1347.0Q1146 1221 1151 1002H1014Q1008 1156 911.5 1251.0Q815 1346 666 1346Q476 1346 377.5 1217.5Q279 1089 279 841V602Q279 354 377.5 225.5Q476 97 666 97Z"/><path transform="translate(802.08,360.00) scale(0.01270,-0.01270)" d="M1100 0H963V677H303V0H166V1443H303V801H963V1443H1100Z"/><path transform="translate(820.76,360.00) scale(0.01270,-0.01270)" d="M632 1264 230 0H90L566 1443H700L1176 0H1036L634 1264ZM909 560 930 442H350L377 560Z"/><path transform="translate(839.43,360.00) scale(0.01270,-0.01270)" d="M1072 124V0H242V1443H1072V1319H379V800H1035V678H379V124Z"/><path transform="translate(858.10,360.00) scale(0.01270,-0.01270)" d="M1152 602Q1152 304 1013.0 137.0Q874 -30 633 -30Q392 -30 253.0 137.0Q114 304 114 602V841Q114 1140 253.0 1306.5Q392 1473 633 1473Q874 1473 1013.0 1306.5Q1152 1140 1152 841ZM633 97Q810 97 912.5 229.5Q1015 362 1015 602V841Q1015 1081 912.5 1213.5Q810 1346 633 1346Q456 1346 353.5 1213.5Q251 1081 251 841V602Q251 362 353.5 229.5Q456 97 633 97Z"/><path transform="translate(876.77,360.00) scale(0.01270,-0.01270)" d="M1114 124V0H275V1443H411V124Z"/><path transform="translate(895.45,360.00) scale(0.01270,-0.01270)" d="M1152 602Q1152 304 1013.0 137.0Q874 -30 633 -30Q392 -30 253.0 137.0Q114 304 114 602V841Q114 1140 253.0 1306.5Q392 1473 633 1473Q874 1473 1013.0 1306.5Q1152 1140 1152 841ZM633 97Q810 97 912.5 229.5Q1015 362 1015 602V841Q1015 1081 912.5 1213.5Q810 1346 633 1346Q456 1346 353.5 1213.5Q251 1081 251 841V602Q251 362 353.5 229.5Q456 97 633 97Z"/><path transform="translate(914.12,360.00) scale(0.01270,-0.01270)" d="M1004 428V597H648V719H1141V409Q1141 281 1079.0 181.5Q1017 82 908.0 26.0Q799 -30 658 -30Q409 -30 271.5 135.5Q134 301 134 602V841Q134 1142 271.5 1307.5Q409 1473 658 1473Q878 1473 1007.5 1347.0Q1137 1221 1142 1002H1005Q999 1156 903.0 1251.0Q807 1346 658 1346Q468 1346 369.5 1217.5Q271 1089 271 841V602Q271 354 369.5 225.5Q468 97 658 97Q818 97 911.0 186.0Q1004 275 1004 428Z"/><path transform="translate(932.79,360.00) scale(0.01270,-0.01270)" d="M701 0H565V624L77 1443H234L627 763H639L1032 1443H1189L701 624Z"/><path transform="translate(988.81,360.00) scale(0.01270,-0.01270)" d="M330 1321V713H647Q808 713 893.5 791.0Q979 869 979 1015Q979 1162 895.5 1241.5Q812 1321 657 1321ZM709 595H330V0H196V1443H666Q872 1443 993.5 1329.0Q1115 1215 1115 1021Q1115 879 1040.5 771.5Q966 664 841 626L1137 0H983Z"/><path transform="translate(1007.48,360.00) scale(0.01270,-0.01270)" d="M1152 602Q1152 304 1013.0 137.0Q874 -30 633 -30Q392 -30 253.0 137.0Q114 304 114 602V841Q114 1140 253.0 1306.5Q392 1473 633 1473Q874 1473 1013.0 1306.5Q1152 1140 1152 841ZM633 97Q810 97 912.5 229.5Q1015 362 1015 602V841Q1015 1081 912.5 1213.5Q810 1346 633 1346Q456 1346 353.5 1213.5Q251 1081 251 841V602Q251 362 353.5 229.5Q456 97 633 97Z"/><path transform="translate(1026.15,360.00) scale(0.01270,-0.01270)" d="M634 179 1037 1443H1176L700 0H566L90 1443H229L632 179Z"/><path transform="translate(1044.82,360.00) scale(0.01270,-0.01270)" d="M1072 124V0H242V1443H1072V1319H379V800H1035V678H379V124Z"/><path transform="translate(1063.50,360.00) scale(0.01270,-0.01270)" d="M330 1321V713H647Q808 713 893.5 791.0Q979 869 979 1015Q979 1162 895.5 1241.5Q812 1321 657 1321ZM709 595H330V0H196V1443H666Q872 1443 993.5 1329.0Q1115 1215 1115 1021Q1115 879 1040.5 771.5Q966 664 841 626L1137 0H983Z"/></g><rect x="522" y="205" width="750" height="2" fill="#AD9179"/><g fill="#B99274" transform="translate(560.99,392.00)"><rect x="0.00" y="0.00" width="672.00" height="6.00"/><rect x="0.00" y="6.00" width="6.00" height="6.00"/><rect x="168.00" y="6.00" width="6.00" height="6.00"/><rect x="336.00" y="6.00" width="6.00" height="6.00"/><rect x="504.00" y="6.00" width="6.00" height="6.00"/><rect x="0.00" y="12.00" width="6.00" height="6.00"/><rect x="12.00" y="12.00" width="66.00" height="6.00"/><rect x="168.00" y="12.00" width="6.00" height="6.00"/><rect x="180.00" y="12.00" width="66.00" height="6.00"/><rect x="336.00" y="12.00" width="6.00" height="6.00"/><rect x="348.00" y="12.00" width="66.00" height="6.00"/><rect x="504.00" y="12.00" width="6.00" height="6.00"/><rect x="516.00" y="12.00" width="66.00" height="6.00"/><rect x="0.00" y="18.00" width="6.00" height="6.00"/><rect x="12.00" y="18.00" width="6.00" height="6.00"/><rect x="72.00" y="18.00" width="6.00" height="6.00"/><rect x="168.00" y="18.00" width="6.00" height="6.00"/><rect x="180.00" y="18.00" width="6.00" height="6.00"/><rect x="240.00" y="18.00" width="6.00" height="6.00"/><rect x="336.00" y="18.00" width="6.00" height="6.00"/><rect x="348.00" y="18.00" width="6.00" height="6.00"/><rect x="408.00" y="18.00" width="6.00" height="6.00"/><rect x="504.00" y="18.00" width="6.00" height="6.00"/><rect x="516.00" y="18.00" width="6.00" height="6.00"/><rect x="576.00" y="18.00" width="6.00" height="6.00"/><rect x="0.00" y="24.00" width="6.00" height="6.00"/><rect x="12.00" y="24.00" width="6.00" height="6.00"/><rect x="24.00" y="24.00" width="42.00" height="6.00"/><rect x="72.00" y="24.00" width="6.00" height="6.00"/><rect x="168.00" y="24.00" width="6.00" height="6.00"/><rect x="180.00" y="24.00" width="6.00" height="6.00"/><rect x="192.00" y="24.00" width="42.00" height="6.00"/><rect x="240.00" y="24.00" width="6.00" height="6.00"/><rect x="336.00" y="24.00" width="6.00" height="6.00"/><rect x="348.00" y="24.00" width="6.00" height="6.00"/><rect x="360.00" y="24.00" width="42.00" height="6.00"/><rect x="408.00" y="24.00" width="6.00" height="6.00"/><rect x="504.00" y="24.00" width="6.00" height="6.00"/><rect x="516.00" y="24.00" width="6.00" height="6.00"/><rect x="528.00" y="24.00" width="42.00" height="6.00"/><rect x="576.00" y="24.00" width="6.00" height="6.00"/><rect x="0.00" y="30.00" width="6.00" height="6.00"/><rect x="12.00" y="30.00" width="6.00" height="6.00"/><rect x="24.00" y="30.00" width="6.00" height="6.00"/><rect x="60.00" y="30.00" width="6.00" height="6.00"/><rect x="72.00" y="30.00" width="6.00" height="6.00"/><rect x="168.00" y="30.00" width="6.00" height="6.00"/><rect x="180.00" y="30.00" width="6.00" height="6.00"/><rect x="192.00" y="30.00" width="6.00" height="6.00"/><rect x="228.00" y="30.00" width="6.00" height="6.00"/><rect x="240.00" y="30.00" width="6.00" height="6.00"/><rect x="336.00" y="30.00" width="6.00" height="6.00"/><rect x="348.00" y="30.00" width="6.00" height="6.00"/><rect x="360.00" y="30.00" width="6.00" height="6.00"/><rect x="396.00" y="30.00" width="6.00" height="6.00"/><rect x="408.00" y="30.00" width="6.00" height="6.00"/><rect x="504.00" y="30.00" width="6.00" height="6.00"/><rect x="516.00" y="30.00" width="6.00" height="6.00"/><rect x="528.00" y="30.00" width="6.00" height="6.00"/><rect x="564.00" y="30.00" width="6.00" height="6.00"/><rect x="576.00" y="30.00" width="6.00" height="6.00"/><rect x="0.00" y="36.00" width="6.00" height="6.00"/><rect x="12.00" y="36.00" width="6.00" height="6.00"/><rect x="24.00" y="36.00" width="6.00" height="6.00"/><rect x="48.00" y="36.00" width="6.00" height="6.00"/><rect x="60.00" y="36.00" width="6.00" height="6.00"/><rect x="72.00" y="36.00" width="6.00" height="6.00"/><rect x="168.00" y="36.00" width="6.00" height="6.00"/><rect x="180.00" y="36.00" width="6.00" height="6.00"/><rect x="192.00" y="36.00" width="6.00" height="6.00"/><rect x="216.00" y="36.00" width="6.00" height="6.00"/><rect x="228.00" y="36.00" width="6.00" height="6.00"/><rect x="240.00" y="36.00" width="6.00" height="6.00"/><rect x="336.00" y="36.00" width="6.00" height="6.00"/><rect x="348.00" y="36.00" width="6.00" height="6.00"/><rect x="360.00" y="36.00" width="6.00" height="6.00"/><rect x="384.00" y="36.00" width="6.00" height="6.00"/><rect x="396.00" y="36.00" width="6.00" height="6.00"/><rect x="408.00" y="36.00" width="6.00" height="6.00"/><rect x="504.00" y="36.00" width="6.00" height="6.00"/><rect x="516.00" y="36.00" width="6.00" height="6.00"/><rect x="528.00" y="36.00" width="6.00" height="6.00"/><rect x="552.00" y="36.00" width="6.00" height="6.00"/><rect x="564.00" y="36.00" width="6.00" height="6.00"/><rect x="576.00" y="36.00" width="6.00" height="6.00"/><rect x="0.00" y="42.00" width="6.00" height="6.00"/><rect x="12.00" y="42.00" width="6.00" height="6.00"/><rect x="24.00" y="42.00" width="6.00" height="6.00"/><rect x="48.00" y="42.00" width="6.00" height="6.00"/><rect x="60.00" y="42.00" width="6.00" height="6.00"/><rect x="72.00" y="42.00" width="6.00" height="6.00"/><rect x="168.00" y="42.00" width="6.00" height="6.00"/><rect x="180.00" y="42.00" width="6.00" height="6.00"/><rect x="192.00" y="42.00" width="6.00" height="6.00"/><rect x="216.00" y="42.00" width="6.00" height="6.00"/><rect x="228.00" y="42.00" width="6.00" height="6.00"/><rect x="240.00" y="42.00" width="6.00" height="6.00"/><rect x="336.00" y="42.00" width="6.00" height="6.00"/><rect x="348.00" y="42.00" width="6.00" height="6.00"/><rect x="360.00" y="42.00" width="6.00" height="6.00"/><rect x="384.00" y="42.00" width="6.00" height="6.00"/><rect x="396.00" y="42.00" width="6.00" height="6.00"/><rect x="408.00" y="42.00" width="6.00" height="6.00"/><rect x="504.00" y="42.00" width="6.00" height="6.00"/><rect x="516.00" y="42.00" width="6.00" height="6.00"/><rect x="528.00" y="42.00" width="6.00" height="6.00"/><rect x="552.00" y="42.00" width="6.00" height="6.00"/><rect x="564.00" y="42.00" width="6.00" height="6.00"/><rect x="576.00" y="42.00" width="6.00" height="6.00"/><rect x="0.00" y="48.00" width="6.00" height="6.00"/><rect x="12.00" y="48.00" width="6.00" height="6.00"/><rect x="24.00" y="48.00" width="30.00" height="6.00"/><rect x="60.00" y="48.00" width="6.00" height="6.00"/><rect x="72.00" y="48.00" width="6.00" height="6.00"/><rect x="168.00" y="48.00" width="6.00" height="6.00"/><rect x="180.00" y="48.00" width="6.00" height="6.00"/><rect x="192.00" y="48.00" width="30.00" height="6.00"/><rect x="228.00" y="48.00" width="6.00" height="6.00"/><rect x="240.00" y="48.00" width="6.00" height="6.00"/><rect x="336.00" y="48.00" width="6.00" height="6.00"/><rect x="348.00" y="48.00" width="6.00" height="6.00"/><rect x="360.00" y="48.00" width="30.00" height="6.00"/><rect x="396.00" y="48.00" width="6.00" height="6.00"/><rect x="408.00" y="48.00" width="6.00" height="6.00"/><rect x="504.00" y="48.00" width="6.00" height="6.00"/><rect x="516.00" y="48.00" width="6.00" height="6.00"/><rect x="528.00" y="48.00" width="30.00" height="6.00"/><rect x="564.00" y="48.00" width="6.00" height="6.00"/><rect x="576.00" y="48.00" width="6.00" height="6.00"/><rect x="0.00" y="54.00" width="6.00" height="6.00"/><rect x="12.00" y="54.00" width="6.00" height="6.00"/><rect x="60.00" y="54.00" width="6.00" height="6.00"/><rect x="72.00" y="54.00" width="6.00" height="6.00"/><rect x="168.00" y="54.00" width="6.00" height="6.00"/><rect x="180.00" y="54.00" width="6.00" height="6.00"/><rect x="228.00" y="54.00" width="6.00" height="6.00"/><rect x="240.00" y="54.00" width="6.00" height="6.00"/><rect x="336.00" y="54.00" width="6.00" height="6.00"/><rect x="348.00" y="54.00" width="6.00" height="6.00"/><rect x="396.00" y="54.00" width="6.00" height="6.00"/><rect x="408.00" y="54.00" width="6.00" height="6.00"/><rect x="504.00" y="54.00" width="6.00" height="6.00"/><rect x="516.00" y="54.00" width="6.00" height="6.00"/><rect x="564.00" y="54.00" width="6.00" height="6.00"/><rect x="576.00" y="54.00" width="6.00" height="6.00"/><rect x="0.00" y="60.00" width="6.00" height="6.00"/><rect x="12.00" y="60.00" width="54.00" height="6.00"/><rect x="72.00" y="60.00" width="6.00" height="6.00"/><rect x="168.00" y="60.00" width="6.00" height="6.00"/><rect x="180.00" y="60.00" width="54.00" height="6.00"/><rect x="240.00" y="60.00" width="6.00" height="6.00"/><rect x="336.00" y="60.00" width="6.00" height="6.00"/><rect x="348.00" y="60.00" width="54.00" height="6.00"/><rect x="408.00" y="60.00" width="6.00" height="6.00"/><rect x="504.00" y="60.00" width="6.00" height="6.00"/><rect x="516.00" y="60.00" width="54.00" height="6.00"/><rect x="576.00" y="60.00" width="6.00" height="6.00"/><rect x="0.00" y="66.00" width="6.00" height="6.00"/><rect x="72.00" y="66.00" width="6.00" height="6.00"/><rect x="168.00" y="66.00" width="6.00" height="6.00"/><rect x="240.00" y="66.00" width="6.00" height="6.00"/><rect x="336.00" y="66.00" width="6.00" height="6.00"/><rect x="408.00" y="66.00" width="6.00" height="6.00"/><rect x="504.00" y="66.00" width="6.00" height="6.00"/><rect x="576.00" y="66.00" width="6.00" height="6.00"/><rect x="0.00" y="72.00" width="78.00" height="6.00"/><rect x="168.00" y="72.00" width="78.00" height="6.00"/><rect x="336.00" y="72.00" width="78.00" height="6.00"/><rect x="504.00" y="72.00" width="78.00" height="6.00"/></g></svg>